# xmcd CD database file
#
# Track frame offsets:
#	150
#	15261
#	31741
#	50446
#	72477
#	89805
#	106875
#	124911
#	145405
#	155912
#
# Disc length: 2376 seconds
#
# Revision: 0
# Processed by: cddbd v1.5.2PL0 Copyright (c) Steve Scherf et al.
# Submitted via: CDex 1.70beta2
#
DISCID=8a09460a
DTITLE=Trijntje Oosterhuis - Sundays In New York AD-versie
DYEAR=2011
DGENRE=Jazz
TTITLE0=Everything Has Changed
TTITLE1=Ain't Nothing Like The Real Thing
TTITLE2=Oh What A Beautiful Morning
TTITLE3=People Get Ready
TTITLE4=Trust In Me
TTITLE5=Another Saturday Night
TTITLE6=I Wish You Love
TTITLE7=Crying Over You
TTITLE8=The Best Things In Life Are Free
TTITLE9=You And I
EXTD=YEAR: 2011
EXTT0=
EXTT1=
EXTT2=
EXTT3=
EXTT4=
EXTT5=
EXTT6=
EXTT7=
EXTT8=
EXTT9=
PLAYORDER=
